# xmcd
#
# Track frame offsets: 
#        150
#        14863
#        29925
#        45000
#        59725
#        74163
#        91175
#        103213
#        119075
#        137638
#        151375
#        166163
#
# Disc length: 2400 seconds
#
# Revision: 0
# Processed by: cddbd v1.5.2PL0 Copyright (c) Steve Scherf et al.
# Submitted via: ExactAudioCopy v1.0b1
#
DISCID=b3095e0c
DTITLE=洪榮宏 - 洪榮宏台語金曲6.行船人的愛
DYEAR=2000
DGENRE=Country
TTITLE0=行船人的愛
TTITLE1=我是男子漢
TTITLE2=海上的男兒
TTITLE3=人生旅途
TTITLE4=等待您再相見
TTITLE5=多情的男兒
TTITLE6=望你聽我勸
TTITLE7=歹路不可行
TTITLE8=勇敢的男子漢
TTITLE9=乾杯不可醉
TTITLE10=酒!不可飲尚多
TTITLE11=人生的十字路
EXTD=
EXTT0=
EXTT1=
EXTT2=
EXTT3=
EXTT4=
EXTT5=
EXTT6=
EXTT7=
EXTT8=
EXTT9=
EXTT10=
EXTT11=
PLAYORDER=
